<svg width="120" height="120" viewBox="0 0 120 120" fill="none" xmlns="http://www.w3.org/2000/svg">
<path d="M0 11C0 4.92486 4.92487 0 11 0H109C115.075 0 120 4.92487 120 11V109C120 115.075 115.075 120 109 120H11C4.92486 120 0 115.075 0 109V11Z" fill="#1F1F1B"/>
<path d="M49.7027 29.1964L61.0021 60.7358H61.4482L72.7476 29.1964H77.5796L63.604 66.6631H58.8463L44.8708 29.1964H49.7027Z" fill="#F3F3E9"/>
<path d="M83.8352 33.5285L71.3073 64.615L71.6436 64.9034L101.21 48.4305L104.853 51.5552L69.3135 70.7665L65.7264 67.6899L80.1921 30.4039L83.8352 33.5285Z" fill="#F3F3E9"/>
<path d="M37.5762 33.5285L50.1041 64.615L49.7678 64.9034L20.2012 48.4305L16.558 51.5552L52.098 70.7665L55.6851 67.6899L41.2194 30.4039L37.5762 33.5285Z" fill="#F3F3E9"/>
<path d="M14.2269 59.2521L44.1829 75.0286L44.1152 75.4626H10V78.4589H49.7401L50.4615 73.8297L14.9595 54.5505L14.2269 59.2521Z" fill="#F3F3E9"/>
<path d="M105.773 59.2521L75.8171 75.0286L75.8848 75.4626L110 75.0286V78.4589H70.2599L69.5385 73.8297L105.04 54.5505L105.773 59.2521Z" fill="#F3F3E9"/>
<path d="M73.6365 78.433C73.6365 75.1521 72.1998 72.0055 69.6425 69.6856C67.0852 67.3657 63.6167 66.0623 60.0001 66.0623C56.3835 66.0623 52.9151 67.3657 50.3578 69.6856C47.8005 72.0055 46.3638 75.1521 46.3638 78.433L60.0001 78.433H73.6365Z" fill="#F3F3E9"/>
</svg>
